<svg xmlns="http://www.w3.org/2000/svg" height="480pt" viewBox="0 0 480 480" width="480pt"><path d="m408 8c-35.347656 0-64 28.652344-64 64v400h-336v-400c0-35.347656 28.652344-64 64-64zm0 0" fill="#efeadd"></path><path d="m408 8c-35.347656 0-64 28.652344-64 64v168h128v-168c0-35.347656-28.652344-64-64-64zm0 0" fill="#254b6f"></path><path d="m416 8.480469c-32.007812 4.03125-56.011719 31.257812-56 63.519531v168h-16v-168c0-35.347656 28.652344-64 64-64 2.675781-.003906 5.34375.160156 8 .480469zm0 0" fill="#204464"></path><path d="m8 264.078125v207.921875h189.121094c-87.105469-1.695312-189.121094-111.703125-189.121094-207.921875zm0 0" fill="#d9d6cc"></path><path d="m117.601562 379.753906c-2.035156-4.890625 8.046876-18.011718 4.367188-21.699218s-16.800781 6.402343-21.695312 4.371093c-4.722657-1.953125-6.824219-18.402343-12.25-18.402343-5.421876 0-7.527344 16.472656-12.246094 18.402343-4.890625 2.03125-18.007813-8.050781-21.699219-4.371093-3.6875 3.679687 6.402344 16.800781 4.371094 21.699218-1.976563 4.71875-18.449219 6.820313-18.449219 12.246094s16.472656 7.527344 18.398438 12.246094c2.035156 4.890625-8.046876 18.011718-4.367188 21.699218s16.800781-6.402343 21.695312-4.371093c4.722657 1.953125 6.824219 18.402343 12.25 18.402343 5.421876 0 7.527344-16.472656 12.246094-18.402343 4.890625-2.03125 18.007813 8.050781 21.699219 4.371093 3.6875-3.679687-6.402344-16.800781-4.371094-21.699218 1.953125-4.71875 18.402344-6.820313 18.402344-12.246094s-16.425781-7.527344-18.351563-12.246094zm0 0" fill="#ee2820"></path><g fill="#231f20"><path d="m88 448c-8.3125 0-11.734375-8.390625-14.230469-14.519531-.417969-1.015625-.992187-2.402344-1.53125-3.609375-1.277343.464844-2.804687 1.097656-3.894531 1.554687-6.328125 2.636719-14.191406 5.902344-19.945312.167969-5.75-5.738281-2.460938-13.601562.175781-19.945312.457031-1.089844 1.089843-2.609376 1.554687-3.878907-1.167968-.546875-2.59375-1.121093-3.609375-1.546875-6.128906-2.496094-14.519531-5.917968-14.519531-14.222656s8.390625-11.726562 14.519531-14.222656c1.015625-.425782 2.402344-1 3.609375-1.546875-.464844-1.269531-1.097656-2.789063-1.554687-3.878907-2.628907-6.328124-5.917969-14.199218-.175781-19.953124 5.746093-5.75 13.601562-2.460938 19.9375.167968 1.097656.464844 2.625 1.097656 3.902343 1.601563.539063-1.167969 1.113281-2.59375 1.53125-3.609375 2.503907-6.167969 5.917969-14.558594 14.230469-14.558594s11.734375 8.390625 14.230469 14.519531c.417969 1.015625.992187 2.402344 1.53125 3.609375 1.277343-.464844 2.804687-1.097656 3.894531-1.554687 6.328125-2.628907 14.199219-5.902344 19.945312-.167969 5.742188 5.738281 2.460938 13.601562-.175781 19.945312-.457031 1.089844-1.089843 2.609376-1.554687 3.878907 1.167968.546875 2.59375 1.121093 3.609375 1.546875 6.128906 2.496094 14.519531 5.917968 14.519531 14.222656s-8.390625 11.726562-14.519531 14.222656c-1.015625.425782-2.402344 1-3.609375 1.546875.464844 1.269531 1.097656 2.789063 1.554687 3.878907 2.628907 6.328124 5.917969 14.199218.175781 19.953124-5.746093 5.75-13.601562 2.46875-19.9375-.167968-1.097656-.464844-2.625-1.097656-3.902343-1.601563-.539063 1.167969-1.113281 2.59375-1.53125 3.609375-2.503907 6.167969-5.917969 14.558594-14.230469 14.558594zm-13.792969-34.703125c1.582031-.011719 3.152344.289063 4.617188.886719 4.515625 2.5625 7.816406 6.824218 9.175781 11.832031 1.359375-5.011719 4.664062-9.273437 9.183594-11.832031 4.910156-1.414063 10.183594-.816406 14.65625 1.65625-2.472656-4.476563-3.070313-9.75-1.65625-14.664063 2.5625-4.507812 6.820312-7.8125 11.824218-9.175781-5.007812-1.363281-9.261718-4.667969-11.824218-9.183594-1.410156-4.914062-.816406-10.183594 1.65625-14.65625-4.476563 2.464844-9.75 3.0625-14.664063 1.65625-4.515625-2.5625-7.816406-6.824218-9.175781-11.832031-1.359375 5.011719-4.664062 9.273437-9.183594 11.832031-4.910156 1.421875-10.1875.824219-14.65625-1.65625 2.472656 4.476563 3.070313 9.75 1.65625 14.664063-2.5625 4.507812-6.820312 7.8125-11.824218 9.175781 5.007812 1.363281 9.261718 4.667969 11.824218 9.183594 1.410156 4.914062.816406 10.183594-1.65625 14.65625 3.160156-1.472656 6.566406-2.335938 10.046875-2.542969zm0 0"></path><path d="m176 384h16v16h-16zm0 0"></path><path d="m208 384h16v16h-16zm0 0"></path><path d="m240 384h16v16h-16zm0 0"></path><path d="m272 384h16v16h-16zm0 0"></path><path d="m304 384h16v16h-16zm0 0"></path><path d="m480 72c-.042969-39.746094-32.253906-71.9570312-72-72h-336c-39.746094.0429688-71.9570312 32.253906-72 72v408h352v-232h128zm-144 392h-320v-392c.035156-30.914062 25.085938-55.964844 56-56h290.847656c-16.96875 13.636719-26.84375 34.230469-26.847656 56zm128-232h-112v-160c0-30.929688 25.070312-56 56-56s56 25.070312 56 56zm0 0"></path><path d="m64 48h16v16h-16zm0 0"></path><path d="m96 48h192v16h-192zm0 0"></path><path d="m64 88h16v16h-16zm0 0"></path><path d="m96 88h192v16h-192zm0 0"></path><path d="m64 136h16v16h-16zm0 0"></path><path d="m96 136h192v16h-192zm0 0"></path><path d="m64 184h16v16h-16zm0 0"></path><path d="m96 184h192v16h-192zm0 0"></path><path d="m64 232h16v16h-16zm0 0"></path><path d="m96 232h192v16h-192zm0 0"></path><path d="m64 280h16v16h-16zm0 0"></path><path d="m96 280h192v16h-192zm0 0"></path></g></svg>