<svg xmlns="http://www.w3.org/2000/svg" height="512pt" viewBox="-96 0 512 512" width="512pt"><path d="m30 502c-11.050781 0-20-8.949219-20-20v-246c0-11.050781 8.949219-20 20-20h260c11.050781 0 20 8.949219 20 20v246c0 11.050781-8.949219 20-20 20-53.039062 0-189.679688 0-260 0zm0 0" fill="#ffd659"></path><path d="m280 130v86h-50v-86c0-38.589844-31.410156-70-70-70s-70 31.410156-70 70v86h-50v-86c0-66.269531 53.730469-120 120-120 66.265625 0 120 53.71875 120 120zm0 0" fill="#50536e"></path><g fill="#a8ebfa"><path d="m269 346c0 11.046875-8.953125 20-20 20s-20-8.953125-20-20 8.953125-20 20-20 20 8.953125 20 20zm0 0"></path><path d="m159.289062 326c11.039063 0 20 8.949219 20 20s-8.960937 20-20 20c-11.050781 0-20-8.949219-20-20s8.949219-20 20-20zm0 0"></path><path d="m90 346c0 11.046875-8.953125 20-20 20s-20-8.953125-20-20 8.953125-20 20-20 20 8.953125 20 20zm0 0"></path></g><path d="m100 256c0 5.523438-4.476562 10-10 10s-10-4.476562-10-10 4.476562-10 10-10 10 4.476562 10 10zm0 0"></path><path d="m0 236v246c0 16.542969 13.457031 30 30 30h260c16.542969 0 30-13.457031 30-30v-246c0-16.542969-13.457031-30-30-30v-76c0-71.832031-58.125-130-130-130-71.683594 0-130 58.316406-130 130v76c-16.542969 0-30 13.457031-30 30zm159.289062 120c-5.511718 0-10-4.484375-10-10s4.488282-10 10-10c5.515626 0 10 4.484375 10 10s-4.484374 10-10 10zm-109.289062-226c0-60.652344 49.347656-110 110-110 60.777344 0 110 49.183594 110 110v76h-30v-76c0-44.113281-35.886719-80-80-80s-80 35.886719-80 80v76h-30zm50 76v-76c0-33.085938 26.914062-60 60-60s60 26.914062 60 60v76zm-80 30c0-5.515625 4.484375-10 10-10h260c5.515625 0 10 4.484375 10 10v246c0 5.515625-4.484375 10-10 10h-71v-41.855469l37.070312-37.074219c1.875-1.875 2.929688-4.417968 2.929688-7.070312v-31.71875c11.640625-4.128906 20-15.242188 20-28.28125 0-16.539062-13.457031-30-30-30s-30 13.460938-30 30c0 13.035156 8.359375 24.152344 20 28.28125v27.578125l-37.070312 37.070313c-1.875 1.875-2.929688 4.417968-2.929688 7.070312v46h-29v-117.984375c11.265625-4.320313 19.289062-15.246094 19.289062-28.015625 0-16.542969-13.457031-30-30-30-16.542968 0-30 13.457031-30 30 0 13.300781 8.703126 24.597656 20.710938 28.519531v117.480469h-30v-46c0-2.652344-1.054688-5.195312-2.929688-7.070312l-37.070312-37.074219v-27.574219c11.640625-4.128906 20-15.246094 20-28.28125 0-16.542969-13.457031-30-30-30s-30 13.457031-30 30c0 13.035156 8.359375 24.152344 20 28.28125v31.71875c0 2.652344 1.054688 5.195312 2.929688 7.070312l37.070312 37.074219v41.855469h-70c-5.515625 0-10-4.484375-10-10zm229 120c-5.515625 0-10-4.484375-10-10s4.484375-10 10-10 10 4.484375 10 10-4.484375 10-10 10zm-179 0c-5.515625 0-10-4.484375-10-10s4.484375-10 10-10 10 4.484375 10 10-4.484375 10-10 10zm0 0"></path><path d="m130 266h100c5.523438 0 10-4.476562 10-10s-4.476562-10-10-10h-100c-5.523438 0-10 4.476562-10 10s4.476562 10 10 10zm0 0"></path></svg>