<svg xmlns="http://www.w3.org/2000/svg" height="490.66667pt" viewBox="0 0 490.66667 490.66667" width="490.66667pt"><path d="m490.667969 245.332031c0 135.496094-109.839844 245.335938-245.335938 245.335938-135.492187 0-245.332031-109.839844-245.332031-245.335938 0-135.492187 109.839844-245.332031 245.332031-245.332031 135.496094 0 245.335938 109.839844 245.335938 245.332031zm0 0" fill="#009688"></path><path d="m245.332031 490.667969c-135.273437 0-245.332031-110.058594-245.332031-245.335938 0-135.273437 110.058594-245.332031 245.332031-245.332031 135.277344 0 245.335938 110.058594 245.335938 245.332031 0 135.277344-110.058594 245.335938-245.335938 245.335938zm0-469.335938c-123.519531 0-224 100.480469-224 224s100.480469 224 224 224 224-100.480469 224-224-100.480469-224-224-224zm0 0"></path><path d="m224 170.667969h-128c-5.886719 0-10.667969-4.78125-10.667969-10.667969s4.78125-10.667969 10.667969-10.667969h128c5.886719 0 10.667969 4.78125 10.667969 10.667969s-4.78125 10.667969-10.667969 10.667969zm0 0"></path><path d="m160 341.332031c-5.886719 0-10.667969-4.777343-10.667969-10.664062v-170.667969c0-5.886719 4.78125-10.667969 10.667969-10.667969s10.667969 4.78125 10.667969 10.667969v170.667969c0 5.886719-4.78125 10.664062-10.667969 10.664062zm0 0"></path><path d="m394.667969 341.332031c-5.890625 0-10.667969-4.777343-10.667969-10.664062v-138.667969l-44.800781 59.734375c-4.03125 5.375-13.035157 5.375-17.085938 0l-44.800781-59.734375v138.667969c0 5.886719-4.777344 10.664062-10.667969 10.664062-5.886719 0-10.664062-4.777343-10.664062-10.664062v-170.667969c0-4.585938 2.941406-8.660156 7.292969-10.132812 4.375-1.386719 9.175781.042968 11.925781 3.734374l55.46875 73.960938 55.464843-73.960938c2.773438-3.691406 7.617188-5.101562 11.925782-3.734374 4.332031 1.472656 7.273437 5.546874 7.273437 10.132812v170.667969c0 5.886719-4.777343 10.664062-10.664062 10.664062zm0 0"></path></svg>