<svg xmlns="http://www.w3.org/2000/svg" height="480pt" viewBox="0 0 480 480" width="480pt"><path d="m264 120c-8.835938 0-16-7.164062-16-16v-96h-224c-8.824219.027344-15.972656 7.175781-16 16v424c0 13.253906 10.746094 24 24 24h304c13.253906 0 24-10.746094 24-24v-328zm0 0" fill="#cab9a4"></path><path d="m264 120h96l-112-112v96c0 8.835938 7.164062 16 16 16zm0 0" fill="#b59d80"></path><path d="m176 240h32v160h-32zm0 0" fill="#78b9eb"></path><path d="m48 272h32v128h-32zm0 0" fill="#00ddc2"></path><path d="m112 336h32v64h-32zm0 0" fill="#00d7df"></path><path d="m360 232h-32c-8.835938 0-16 7.164062-16 16v24c0 8.835938 7.164062 16 16 16h32zm0 0" fill="#ffda44"></path><path d="m472 288c0-61.855469-50.144531-112-112-112s-112 50.144531-112 112 50.144531 112 112 112 112-50.144531 112-112zm-80 0c8.835938 0 16 7.164062 16 16v24c0 8.835938-7.164062 16-16 16h-64c-8.835938 0-16-7.164062-16-16 0 8.835938 7.164062 16 16 16h32v-56h-32c-8.835938 0-16-7.164062-16-16v-24c0-8.835938 7.164062-16 16-16h64c8.835938 0 16 7.164062 16 16 0-8.835938-7.164062-16-16-16h-32v56zm48 0" fill="#ffda44"></path><path d="m392 344c8.835938 0 16-7.164062 16-16v-24c0-8.835938-7.164062-16-16-16h-32v56zm0 0" fill="#ffda44"></path><g fill="#231f20"><path d="m360 168c-66.273438 0-120 53.726562-120 120s53.726562 120 120 120 120-53.726562 120-120c-.074219-66.242188-53.757812-119.925781-120-120zm0 224c-57.4375 0-104-46.5625-104-104s46.5625-104 104-104 104 46.5625 104 104c-.066406 57.410156-46.589844 103.933594-104 104zm0 0"></path><path d="m392 240c4.417969 0 8 3.582031 8 8h16c0-13.253906-10.746094-24-24-24h-24v-16h-16v16h-24c-13.253906 0-24 10.746094-24 24v24c0 13.253906 10.746094 24 24 24h24v40h-24c-4.417969 0-8-3.582031-8-8h-16c0 13.253906 10.746094 24 24 24h24v16h16v-16h24c13.253906 0 24-10.746094 24-24v-24c0-13.253906-10.746094-24-24-24h-24v-40zm0 56c4.417969 0 8 3.582031 8 8v24c0 4.417969-3.582031 8-8 8h-24v-40zm-40-16h-24c-4.417969 0-8-3.582031-8-8v-24c0-4.417969 3.582031-8 8-8h24zm0 0"></path><path d="m280 280h8v16h-8zm0 0"></path><path d="m432 280h8v16h-8zm0 0"></path><path d="m352 448c0 8.835938-7.164062 16-16 16h-304c-8.835938 0-16-7.164062-16-16v-424c0-4.417969 3.582031-8 8-8h216v88c0 13.253906 10.746094 24 24 24h88v24h16v-35.3125l-116.6875-116.6875h-227.3125c-13.253906 0-24 10.746094-24 24v424c0 17.671875 14.328125 32 32 32h304c17.671875 0 32-14.328125 32-32v-24h-16zm-96-344v-76.6875l84.6875 84.6875h-76.6875c-4.417969 0-8-3.582031-8-8zm0 0"></path><path d="m32 408h192v-16h-8v-160h-48v160h-16v-64h-48v64h-16v-128h-48v128h-8zm152-160h16v144h-16zm-64 96h16v48h-16zm-64-64h16v112h-16zm0 0"></path><path d="m32 32h192v16h-192zm0 0"></path><path d="m32 64h96v16h-96zm0 0"></path><path d="m144 64h80v16h-80zm0 0"></path><path d="m32 96h192v16h-192zm0 0"></path><path d="m32 128h192v16h-192zm0 0"></path><path d="m32 160h96v16h-96zm0 0"></path><path d="m144 160h80v16h-80zm0 0"></path></g></svg>