<svg xmlns="http://www.w3.org/2000/svg" xmlns:xlink="http://www.w3.org/1999/xlink" id="Layer_1" x="0px" y="0px" viewBox="0 0 511.992 511.992" style="enable-background:new 0 0 511.992 511.992;" xml:space="preserve" width="512" height="512">
<g>
	<g>
		<path style="fill:#ECEAEC;" d="M101.856,98.898V430.16c0,26.057,21.123,47.18,47.18,47.18h0l256.979-32.122V98.898V81.833    c0-26.057-21.123-47.18-47.18-47.18H54.676L101.856,98.898z"></path>
		<path style="fill:#D2D2D2;" d="M54.676,34.653L54.676,34.653c-26.057,0-47.18,21.123-47.18,47.18v17.065h94.359V81.833    C101.856,55.776,80.733,34.653,54.676,34.653z"></path>
		<path style="fill:#D2D2D2;" d="M423.079,477.339L423.079,477.339c26.057,0,47.18-21.123,47.18-47.18v-17.065H196.215v17.065    c0,26.057-21.123,47.18-47.18,47.18h0H423.079z"></path>
		<path style="fill:#D2D2D2;" d="M280.158,248.416l-31.927,31.927c-14.925,14.927-14.925,39.213,0.001,54.139    c7.231,7.231,16.845,11.213,27.07,11.213c10.226,0,19.84-3.982,27.07-11.213l31.927-31.926    c24.737-4.981,49.029-14.379,71.715-27.561V98.898V81.833c0-0.564-0.023-1.123-0.043-1.682    c-20.618,11.492-39.982,26.08-57.195,43.293C313.497,158.724,289.339,202.82,280.158,248.416z"></path>
		<path style="fill:#FFC261;" d="M504.209,99.733c2.216-12.489-8.738-23.444-21.227-21.227    c-40.844,7.248-82.3,28.388-116.528,62.616c-40.935,40.935-63.151,92.209-65.271,140.41c48.2-2.12,99.474-24.335,140.41-65.271    C475.821,182.033,496.961,140.576,504.209,99.733z"></path>
		<g>
			<path style="fill:#FDA756;" d="M265.91,316.805c-5.187-5.187-5.187-13.598,0-18.785l162.027-162.027     c5.187-5.187,13.598-5.187,18.785,0c5.187,5.187,5.187,13.598,0,18.785L284.695,316.805     C279.507,321.992,271.097,321.992,265.91,316.805z"></path>
		</g>
	</g>
	<g>
		<path d="M187.196,93.489V80.092c0-4.142-3.358-7.5-7.5-7.5s-7.5,3.358-7.5,7.5v13.397c0,4.142,3.358,7.5,7.5,7.5    S187.196,97.63,187.196,93.489z"></path>
		<path d="M335.239,93.489V80.092c0-4.142-3.358-7.5-7.5-7.5s-7.5,3.358-7.5,7.5v13.397c0,4.142,3.358,7.5,7.5,7.5    S335.239,97.63,335.239,93.489z"></path>
		<path d="M253.717,108.139c9.285,0,18.001-3.88,23.916-10.646c2.727-3.119,2.408-7.857-0.71-10.583    c-3.118-2.726-7.857-2.408-10.583,0.711c-3.066,3.507-7.667,5.519-12.623,5.519s-9.557-2.011-12.623-5.519    c-2.726-3.119-7.464-3.437-10.583-0.711c-3.119,2.726-3.437,7.464-0.711,10.583C235.715,104.259,244.433,108.139,253.717,108.139z    "></path>
		<path d="M360.846,374.084c4.142,0,7.5-3.358,7.5-7.5s-3.358-7.5-7.5-7.5H301.62c-4.142,0-7.5,3.358-7.5,7.5s3.358,7.5,7.5,7.5    H360.846z"></path>
		<path d="M481.675,71.12c-23.396,4.152-46.516,12.655-68.157,24.854V81.833c0-30.15-24.529-54.68-54.68-54.68    c0,0-304.151,0-304.158,0C24.529,27.153,0,51.682,0,81.832v17.065c0,4.142,3.358,7.5,7.5,7.5h86.859v202.834    c0,4.142,3.358,7.5,7.5,7.5s7.5-3.358,7.5-7.5c0,0,0-227.398,0-227.4c0-14.791-6.347-29.512-17.096-39.679h266.575    c21.879,0,39.68,17.8,39.68,39.68v23.309c-5.759,3.839-11.365,7.961-16.815,12.316c-15.057,12.028-28.718,25.814-40.575,41.009    c-0.179,0.229-0.358,0.459-0.536,0.689H161.085c-4.142,0-7.5,3.358-7.5,7.5s3.358,7.5,7.5,7.5h168.776    c-0.014,0.021-0.028,0.043-0.042,0.065c-4.791,7.268-9.188,14.822-13.141,22.579H161.085c-4.142,0-7.5,3.358-7.5,7.5    s3.358,7.5,7.5,7.5h148.632c-0.168,0.4-0.333,0.802-0.499,1.203c-2.894,7.009-5.44,14.165-7.582,21.44H161.085    c-4.142,0-7.5,3.357-7.5,7.5c0,4.142,3.358,7.5,7.5,7.5h136.743c-0.03,0.138-1.055,5.154-1.468,7.523    c0,0-35.819,35.829-35.856,35.867c-8.884,8.955-7.108,25.004,3.356,31.93c0.025,0.017,0.05,0.029,0.075,0.045    c7.971,5.152,19.261,4.073,26.031-2.67c0.011-0.01,35.785-35.781,35.785-35.781c0.265-0.046,0.53-0.101,0.795-0.149    c25.361-4.577,49.783-13.994,71.969-27.059v146.445H196.219c-4.142,0-7.5,3.358-7.5,7.5v17.065    c0,13.259-6.979,26.104-17.89,33.576c-6.781,4.643-14.337,5.113-22.237,6.101c-21.674-0.241-39.233-17.947-39.233-39.677v-90.927    c0-4.142-3.358-7.5-7.5-7.5s-7.5,3.358-7.5,7.5v90.927c0,30.15,24.53,54.68,54.683,54.68h274.041    c30.15,0,54.68-24.529,54.68-54.68v-17.065c0-4.142-3.358-7.5-7.5-7.5h-56.745V249.493c11.791-8.199,22.994-17.541,33.382-27.93    c8.52-8.52,16.452-17.696,23.574-27.273c2.472-3.324,1.781-8.022-1.542-10.494c-3.324-2.472-8.022-1.781-10.494,1.542    c-17.527,23.567-39.606,44.014-64.764,59.21c-14.905,9.088-30.94,16.423-47.641,21.527c0,0,105.981-105.98,105.997-105.996    c7.983-7.983,7.979-21.5-0.123-29.501c-7.972-7.854-21.339-7.819-29.269,0.11L316.626,236.701    c0.063-0.208,0.127-0.415,0.191-0.622c4.388-14.147,10.361-27.799,17.641-40.695c15.697-27.785,37.395-52.133,63.015-71.142    c26.459-19.622,56.417-32.957,86.823-38.353c3.505-0.622,6.975,0.478,9.515,3.018c2.54,2.54,3.64,6.008,3.017,9.514    c-3.805,21.444-11.439,42.533-22.691,62.681c-2.02,3.616-0.725,8.186,2.892,10.205s8.185,0.725,10.205-2.892    c12.068-21.611,20.266-44.279,24.364-67.373c1.469-8.275-1.215-16.777-7.18-22.742C498.452,72.336,489.95,69.653,481.675,71.12z     M15,91.398v-9.565c0-21.879,17.8-39.679,39.68-39.679c0.074,0,0.147,0.005,0.222,0.005c21.113,0.14,39.328,18.309,39.452,39.437    c0,0.08,0.006,0.158,0.006,0.237v9.565H15z M462.762,430.159c0,21.879-17.8,39.68-39.68,39.68H186.682    c6.568-6.236,11.53-14.054,14.358-22.769c2.721-8.386,2.679-17.499,2.679-26.475H406.02h56.742V430.159z M434.293,140.477    c2.214-1.332,5.247-1.064,7.128,0.82c2.216,2.213,2.2,5.978,0,8.178c-0.001,0.001-162.027,162.026-162.027,162.026    c-1.905,1.905-5.03,2.223-7.279,0.735c-2.945-1.948-3.402-6.341-0.941-8.862c0.015-0.016,0.026-0.035,0.042-0.05    c0,0,161.841-161.841,162.027-162.027C433.563,140.977,433.916,140.704,434.293,140.477z"></path>
	</g>
</g>















</svg>